<?xml version="1.0" encoding="utf-8"?>
<!-- Generator: Adobe Illustrator 21.0.0, SVG Export Plug-In . SVG Version: 6.00 Build 0)  -->
<!DOCTYPE svg PUBLIC "-//W3C//DTD SVG 1.1//EN" "http://www.w3.org/Graphics/SVG/1.1/DTD/svg11.dtd">
<svg version="1.1" id="Laag_1" xmlns="http://www.w3.org/2000/svg" xmlns:xlink="http://www.w3.org/1999/xlink" x="0px" y="0px"
	 width="1275px" height="850px" viewBox="0 0 1275 850" style="enable-background:new 0 0 1275 850;" xml:space="preserve">
<style type="text/css">
	.st0{fill:none;}
	.st1{clip-path:url(#SVGID_2_);}
	.st2{fill:#2175D9;}
	.st3{clip-path:url(#SVGID_2_);fill:#6BA5B4;}
	.st4{clip-path:url(#SVGID_2_);fill:#E74536;}
	.st5{clip-path:url(#SVGID_2_);fill:#0F1941;}
	.st6{clip-path:url(#SVGID_2_);fill:#2175D9;}
</style>
<rect class="st0" width="1275" height="850"/>
<g>
	<defs>
		<rect id="SVGID_1_" width="1275" height="850"/>
	</defs>
	<clipPath id="SVGID_2_">
		<use xlink:href="#SVGID_1_"  style="overflow:visible;"/>
	</clipPath>
	<g class="st1">
		<path class="st2" d="M971,443.5h-64.7c-10.2,0-18.5-8.3-18.5-18.5s8.3-18.5,18.5-18.5H971c56,0,101.6-45.6,101.6-101.6
			c0-56-45.6-101.6-101.6-101.6H610.6c-10.2,0-18.5-8.3-18.5-18.5s8.3-18.5,18.5-18.5H971c76.4,0,138.6,62.2,138.6,138.6
			S1047.4,443.5,971,443.5z"/>
	</g>
	<g class="st1">
		<path class="st2" d="M481.3,683.7h-83.2c-76.4,0-138.6-62.2-138.6-138.6s62.2-138.6,138.6-138.6h286.4c10.2,0,18.5,8.3,18.5,18.5
			s-8.3,18.5-18.5,18.5H398.2c-56,0-101.6,45.6-101.6,101.6c0,56,45.6,101.6,101.6,101.6h83.2c10.2,0,18.5,8.3,18.5,18.5
			S491.5,683.7,481.3,683.7z"/>
	</g>
	<circle class="st3" cx="499.8" cy="184.8" r="73.9"/>
	<circle class="st4" cx="795.4" cy="425" r="73.9"/>
	<circle class="st5" cx="592.2" cy="665.2" r="73.9"/>
	<path class="st6" d="M389.4,166.3H232.4c-56,0-101.6-45.6-101.6-101.6c0-1.6-0.2-3.1-0.6-4.6c0.4-1.5,0.6-3,0.6-4.6V-55.4
		c0-10.2-8.3-18.5-18.5-18.5s-18.5,8.3-18.5,18.5V55.4c0,1.6,0.2,3.1,0.6,4.6c-0.4,1.5-0.6,3-0.6,4.6c0,76.4,62.2,138.6,138.6,138.6
		h157.1c10.2,0,18.5-8.3,18.5-18.5S399.6,166.3,389.4,166.3z"/>
</g>
<g>
</g>
<g>
</g>
<g>
</g>
<g>
</g>
<g>
</g>
<g>
</g>
<g>
</g>
<g>
</g>
<g>
</g>
<g>
</g>
<g>
</g>
<g>
</g>
<g>
</g>
<g>
</g>
<g>
</g>
</svg>
